<svg width="283" height="18" viewBox="0 0 283 18" fill="none" xmlns="http://www.w3.org/2000/svg">
<path d="M14.6416 17.6904H6.3106C4.30684 17.6904 2.72711 16.8016 1.5631 15.0323C0.523805 13.4408 0 11.4854 0 9.14894C0 6.77867 0.532119 4.76393 1.58804 3.09627C2.76037 1.25084 4.33178 0.328125 6.30229 0.328125H14.6333V3.99359H6.93418C6.00297 3.99359 5.27131 4.49304 4.73919 5.50041C4.26527 6.39773 4.02415 7.51515 4.02415 8.83573C4.02415 10.1986 4.27358 11.3584 4.76413 12.3234C5.30456 13.3816 6.02791 13.9149 6.92587 13.9149H14.6333V17.6904H14.6416Z" fill="#FF3838"/>
<path d="M30.5519 11.4756C30.5519 13.4819 29.787 15.0818 28.2655 16.2754C26.8853 17.3505 25.2058 17.8923 23.2104 17.8923C21.2731 17.8923 19.6435 17.359 18.3215 16.3008C16.8415 15.1157 16.1016 13.5073 16.1016 11.4756V0.34375H19.8015V10.8492C19.8015 11.755 20.1839 12.483 20.9488 13.0332C21.6472 13.5327 22.487 13.7866 23.4764 13.7866C24.4242 13.7866 25.2224 13.5411 25.8793 13.0586C26.6026 12.5168 26.9684 11.7804 26.9684 10.8407V0.34375H30.5519V11.4756Z" fill="#FF3838"/>
<path d="M46.5031 17.6976H39.7019C37.5485 17.6976 35.8523 17.1474 34.5886 16.0469C33.5992 15.1834 32.9007 14.0152 32.4933 12.5253C32.2273 11.5518 32.0859 10.4936 32.0859 9.34235C32.0859 9.07993 32.0859 8.89369 32.0943 8.78364C32.1026 8.67359 32.1109 8.58048 32.1275 8.49582V0.34375H35.8939V8.49582C35.8939 9.96032 36.1932 11.1963 36.8002 12.2036C37.4986 13.3549 38.4631 13.939 39.6936 13.939H46.4947V17.6976H46.5031Z" fill="#FF3838"/>
<path d="M56.8067 4.00922H52.9572V17.6976H49.224V4.00922H45.3828V0.34375H56.7984V4.00922H56.8067Z" fill="#FF3838"/>
<path d="M72.2863 11.4756C72.2863 13.4819 71.5214 15.0818 69.9999 16.2754C68.6197 17.3505 66.9402 17.8923 64.9447 17.8923C63.0075 17.8923 61.3779 17.359 60.0559 16.3008C58.5759 15.1157 57.8359 13.5073 57.8359 11.4756V0.34375H61.5358V10.8492C61.5358 11.755 61.9183 12.483 62.6832 13.0332C63.3816 13.5327 64.2214 13.7866 65.2108 13.7866C66.1586 13.7866 66.9568 13.5411 67.6136 13.0586C68.337 12.5168 68.7028 11.7804 68.7028 10.8407V0.34375H72.2863V11.4756Z" fill="#FF3838"/>
<path d="M88.4348 17.6976L77.7009 13.3718V17.6891H73.9844V11.9327C73.9844 10.5529 74.3169 9.42701 74.9904 8.58048C75.772 7.58157 76.9193 7.09059 78.4409 7.09059H83.0637C83.4877 7.09059 83.8203 6.93821 84.0531 6.64193C84.2859 6.34564 84.4023 5.9901 84.4023 5.58376C84.4023 5.15203 84.2942 4.78803 84.0697 4.49174C83.8203 4.1616 83.4794 4.00076 83.0637 4.00076H73.9844V0.34375H83.6872C85.1423 0.34375 86.2896 0.885529 87.1377 1.97755C87.9026 2.95952 88.2851 4.17006 88.2851 5.60069C88.2851 7.02286 87.9026 8.22493 87.1377 9.20691C86.2896 10.3074 85.1423 10.8492 83.6872 10.8492H81.3426L88.4348 13.6089V17.6976Z" fill="#FF3838"/>
<path d="M104.285 17.6807H94.5822C93.1272 17.6807 91.9798 17.1304 91.1318 16.0215C90.3668 15.031 89.9844 13.8036 89.9844 12.356C89.9844 11.0523 90.3086 9.91799 90.9488 8.96142C90.3086 8.00484 89.9844 6.88742 89.9844 5.6007C89.9844 4.17853 90.3668 2.97646 91.1318 1.98602C91.9798 0.885529 93.1272 0.34375 94.5822 0.34375H104.285V4.00922H95.2141C94.8067 4.00922 94.4824 4.17006 94.2413 4.48328C94.0002 4.79649 93.8838 5.16897 93.8838 5.59223C93.8838 6.00703 94.0002 6.36257 94.2247 6.65039C94.4492 6.94668 94.7818 7.09059 95.2058 7.09059H104.277V10.7391V10.8407H94.6986C94.4492 10.9508 94.2496 11.1539 94.1083 11.4417C93.967 11.7296 93.8921 12.0428 93.8921 12.3814C93.8921 12.8047 94.0085 13.1771 94.233 13.4903C94.4575 13.8036 94.7901 13.9559 95.2141 13.9559H104.285V17.6807Z" fill="#FF3838"/>
<path d="M128.62 17.6976H121.819C119.666 17.6976 117.97 17.1474 116.706 16.0469C115.716 15.1834 115.018 14.0152 114.611 12.5253C114.344 11.5518 114.203 10.4936 114.203 9.34235C114.203 9.07993 114.203 8.89369 114.211 8.78364C114.22 8.67359 114.228 8.58048 114.245 8.49582V0.34375H118.011V8.49582C118.011 9.96032 118.31 11.1963 118.917 12.2036C119.616 13.3549 120.58 13.939 121.811 13.939H128.612V17.6976H128.62Z" fill="#FF3838"/>
<path d="M147.03 17.6813H142.997L138.541 4.31465C138.516 4.17074 138.416 4.10301 138.25 4.10301C138.092 4.10301 137.975 4.17074 137.901 4.31465L133.544 17.6729H129.453C129.686 16.8517 130.185 15.2095 130.95 12.7545C131.715 10.2996 132.463 7.98012 133.186 5.78761C133.993 3.3496 134.492 1.99516 134.666 1.72427C134.999 1.24175 135.489 0.869272 136.13 0.615313C136.77 0.361354 137.468 0.234375 138.225 0.234375C138.981 0.234375 139.671 0.361354 140.312 0.615313C140.952 0.869272 141.434 1.24175 141.767 1.72427C141.975 2.01209 142.473 3.35807 143.272 5.76221C143.762 7.24364 144.502 9.56313 145.475 12.7291C146.082 14.6592 146.597 16.3015 147.03 17.6813Z" fill="#FF3838"/>
<path d="M165.022 14.1885C165.022 15.289 164.573 16.1948 163.683 16.9143C162.843 17.5831 161.846 17.9217 160.682 17.9217C159.676 17.9217 158.778 17.6508 157.971 17.109C157.082 16.4995 156.441 15.6361 156.075 14.5102C156.001 14.2816 155.66 13.0541 155.053 10.8108C154.504 8.77916 154.022 7.19615 153.614 6.05334C153.049 4.48726 152.583 3.73385 152.234 3.77617C152.001 3.83543 151.835 3.92855 151.744 4.06399C151.652 4.19944 151.602 4.39414 151.602 4.63963V17.6762H147.836V3.75078C147.836 2.48098 148.31 1.51594 149.249 0.847182C150.056 0.280007 151.095 -0.0078125 152.359 -0.0078125C154.055 -0.0078125 155.394 0.855647 156.391 2.59103C157.065 3.75078 157.697 5.62161 158.304 8.20352C158.977 11.0479 159.459 12.8086 159.767 13.4943C159.933 13.8668 160.191 14.0446 160.532 14.0446C160.715 14.0446 160.881 13.9684 161.014 13.816C161.147 13.6636 161.214 13.452 161.214 13.1896V0.186889H165.013V14.1885H165.022Z" fill="#FF3838"/>
<path d="M174.909 17.6976H166.578V0.34375H174.909C176.88 0.34375 178.451 1.258 179.623 3.09497C180.688 4.75417 181.211 6.77737 181.211 9.15612C181.211 11.4841 180.688 13.448 179.648 15.0395C178.493 16.8087 176.913 17.6976 174.909 17.6976ZM174.286 13.9305C175.175 13.9305 175.899 13.3972 176.439 12.3391C176.93 11.374 177.179 10.2143 177.179 8.85137C177.179 7.53078 176.938 6.41336 176.464 5.51604C175.932 4.51714 175.208 4.00922 174.286 4.00922H170.353V13.9305H174.286Z" fill="#FF3838"/>
<path d="M201.767 4.00922H197.918V17.6976H194.193V4.00922H190.352V0.34375H201.767V4.00922Z" fill="black"/>
<path d="M217.466 17.6976L206.732 13.3718V17.6891H203.016V11.9327C203.016 10.5529 203.348 9.42701 204.022 8.58048C204.803 7.58157 205.951 7.09059 207.472 7.09059H212.095C212.519 7.09059 212.852 6.93821 213.084 6.64193C213.317 6.34564 213.434 5.9901 213.434 5.58376C213.434 5.15203 213.325 4.78803 213.101 4.49174C212.852 4.1616 212.511 4.00076 212.095 4.00076H203.024V0.34375H212.727C214.182 0.34375 215.329 0.885529 216.177 1.97755C216.942 2.95952 217.325 4.17006 217.325 5.60069C217.325 7.02286 216.942 8.22493 216.177 9.20691C215.329 10.3074 214.182 10.8492 212.727 10.8492H210.382L217.474 13.6089V17.6976H217.466Z" fill="black"/>
<path d="M235.803 17.6813H231.771L227.314 4.31465C227.289 4.17074 227.189 4.10301 227.023 4.10301C226.865 4.10301 226.749 4.17074 226.674 4.31465L222.317 17.6729H218.227C218.459 16.8517 218.958 15.2095 219.723 12.7545C220.488 10.2996 221.236 7.98012 221.96 5.78761C222.766 3.3496 223.265 1.99516 223.44 1.72427C223.772 1.24175 224.263 0.869272 224.903 0.615313C225.543 0.361354 226.242 0.234375 226.998 0.234375C227.755 0.234375 228.445 0.361354 229.085 0.615313C229.725 0.869272 230.208 1.24175 230.54 1.72427C230.748 2.01209 231.247 3.35807 232.045 5.76221C232.536 7.24364 233.276 9.56313 234.248 12.7291C234.864 14.6592 235.371 16.3015 235.803 17.6813Z" fill="black"/>
<path d="M252.631 0.445965C252.265 1.71576 251.767 3.36649 251.135 5.39817C250.345 7.95469 249.597 10.2911 248.898 12.4159C248.1 14.837 247.601 16.1999 247.402 16.4877C247.077 16.9618 246.587 17.3342 245.93 17.5967C245.273 17.8591 244.575 17.9945 243.843 17.9945C243.086 17.9945 242.396 17.8676 241.756 17.6136C241.116 17.3596 240.634 16.9872 240.301 16.4877C240.093 16.2168 239.594 14.8624 238.796 12.4244C238.314 10.9599 237.574 8.61498 236.593 5.40663C235.77 2.74853 235.263 1.08933 235.055 0.4375H239.104L243.544 13.9143C243.569 14.0582 243.668 14.1259 243.835 14.1259C244.001 14.1259 244.126 14.0582 244.2 13.9143L248.541 0.4375H252.631V0.445965Z" fill="black"/>
<path d="M266.894 17.6807H257.192C255.737 17.6807 254.589 17.1304 253.741 16.0215C252.976 15.031 252.594 13.8036 252.594 12.356C252.594 11.0523 252.918 9.91799 253.558 8.96142C252.918 8.00484 252.594 6.88742 252.594 5.6007C252.594 4.17853 252.976 2.97646 253.741 1.98602C254.589 0.885529 255.737 0.34375 257.192 0.34375H266.894V4.00922H257.823C257.416 4.00922 257.092 4.17006 256.851 4.48328C256.61 4.79649 256.493 5.16897 256.493 5.59223C256.493 6.00703 256.61 6.36257 256.834 6.65039C257.059 6.94668 257.391 7.09059 257.815 7.09059H266.894V10.7391V10.8407H257.308C257.059 10.9508 256.859 11.1539 256.718 11.4417C256.576 11.7296 256.502 12.0428 256.502 12.3814C256.502 12.8047 256.618 13.1771 256.842 13.4903C257.067 13.8036 257.399 13.9559 257.823 13.9559H266.894V17.6807Z" fill="black"/>
<path d="M282.808 17.6976H276.007C273.853 17.6976 272.157 17.1474 270.893 16.0469C269.904 15.1834 269.205 14.0152 268.798 12.5253C268.532 11.5518 268.391 10.4936 268.391 9.34235C268.391 9.07993 268.391 8.89369 268.399 8.78364C268.407 8.67359 268.416 8.58048 268.432 8.49582V0.34375H272.199V8.49582C272.199 9.96032 272.498 11.1963 273.105 12.2036C273.803 13.3549 274.768 13.939 275.998 13.939H282.799V17.6976H282.808Z" fill="black"/>
</svg>
